<?xml version="1.0" encoding="UTF-8"?>
<!DOCTYPE svg PUBLIC "-//W3C//DTD SVG 1.1//EN" "http://www.w3.org/Graphics/SVG/1.1/DTD/svg11.dtd">
<svg xmlns="http://www.w3.org/2000/svg" version="1.1" width="80px" height="80px" style="shape-rendering:geometricPrecision; text-rendering:geometricPrecision; image-rendering:optimizeQuality; fill-rule:evenodd; clip-rule:evenodd" xmlns:xlink="http://www.w3.org/1999/xlink">
<g><path style="opacity:1" fill="#e6cdbf" d="M -0.5,-0.5 C 26.1667,-0.5 52.8333,-0.5 79.5,-0.5C 79.5,26.1667 79.5,52.8333 79.5,79.5C 52.8333,79.5 26.1667,79.5 -0.5,79.5C -0.5,52.8333 -0.5,26.1667 -0.5,-0.5 Z"/></g>
<g><path style="opacity:1" fill="#e1c8ba" d="M 54.5,9.5 C 60.5,13.5 65.5,18.5 69.5,24.5C 70.3382,24.8417 70.6716,25.5084 70.5,26.5C 70.7215,29.0673 71.3882,31.4006 72.5,33.5C 73.4095,42.8765 71.0762,51.2099 65.5,58.5C 64.3421,57.4274 64.3421,56.2607 65.5,55C 64.2635,52.7521 62.5969,52.2521 60.5,53.5C 61.3128,54.8139 62.3128,55.9805 63.5,57C 63.2716,57.3988 62.9382,57.5654 62.5,57.5C 60.9395,55.3647 59.2729,55.198 57.5,57C 58.7101,58.0391 59.7101,59.2058 60.5,60.5C 58.6889,59.178 56.6889,58.678 54.5,59C 52.2129,60.4272 51.8795,62.2606 53.5,64.5C 52.675,65.3857 51.675,65.719 50.5,65.5C 50.719,64.325 50.3857,63.325 49.5,62.5C 48.6527,64.061 48.9861,65.561 50.5,67C 47.9362,67.4502 46.4362,66.2836 46,63.5C 45.5576,65.684 46.0576,67.684 47.5,69.5C 48.9217,68.2232 49.9217,68.5565 50.5,70.5C 32.9862,74.9062 19.3195,69.5729 9.5,54.5C 8.02771,49.6082 7.02771,44.6082 6.5,39.5C 7.00942,35.1327 7.67609,30.7993 8.5,26.5C 12.8333,18.8333 18.8333,12.8333 26.5,8.5C 30.7993,7.67609 35.1327,7.00942 39.5,6.5C 44.6082,7.02771 49.6082,8.02771 54.5,9.5 Z"/></g>
<g><path style="opacity:1" fill="#2d2926" d="M 54.5,9.5 C 49.6082,8.02771 44.6082,7.02771 39.5,6.5C 35.1327,7.00942 30.7993,7.67609 26.5,8.5C 30.1924,6.06677 34.3591,5.06677 39,5.5C 44.7464,5.06051 49.913,6.39384 54.5,9.5 Z"/></g>
<g><path style="opacity:1" fill="#68533e" d="M 41.5,9.5 C 45.2231,9.35768 46.0564,10.691 44,13.5C 43.3333,12.1667 42.6667,12.1667 42,13.5C 41.51,12.2068 41.3433,10.8734 41.5,9.5 Z"/></g>
<g><path style="opacity:1" fill="#68533d" d="M 48.5,10.5 C 49.1577,11.3984 49.8243,12.3984 50.5,13.5C 52.5076,11.2383 52.841,11.7383 51.5,15C 50.552,15.4828 49.552,15.6495 48.5,15.5C 48.5,13.8333 48.5,12.1667 48.5,10.5 Z"/></g>
<g><path style="opacity:1" fill="#2f2a28" d="M 54.5,9.5 C 61.8333,12.1667 66.8333,17.1667 69.5,24.5C 65.5,18.5 60.5,13.5 54.5,9.5 Z"/></g>
<g><path style="opacity:1" fill="#745e49" d="M 29.5,11.5 C 34.7572,12.9704 34.7572,14.3037 29.5,15.5C 29.5,14.1667 29.5,12.8333 29.5,11.5 Z"/></g>
<g><path style="opacity:1" fill="#7d6853" d="M 34.5,9.5 C 35.8734,9.34332 37.2068,9.50999 38.5,10C 36.203,11.1597 36.5363,12.1597 39.5,13C 35.6737,15.3632 34.007,14.1965 34.5,9.5 Z"/></g>
<g><path style="opacity:1" fill="#78624e" d="M 54.5,13.5 C 55.3764,13.3691 56.0431,13.7025 56.5,14.5C 54.1034,19.601 53.4368,19.2677 54.5,13.5 Z"/></g>
<g><path style="opacity:1" fill="#2c2725" d="M 26.5,8.5 C 18.8333,12.8333 12.8333,18.8333 8.5,26.5C 11.5,17.5 17.5,11.5 26.5,8.5 Z"/></g>
<g><path style="opacity:1" fill="#7f6954" d="M 21.5,14.5 C 22.6491,14.7911 23.3158,15.6244 23.5,17C 23.1747,19.5263 21.8413,19.693 19.5,17.5C 20.6119,16.7348 21.2786,15.7348 21.5,14.5 Z"/></g>
<g><path style="opacity:1" fill="#604c36" d="M 57.5,17.5 C 58.9778,17.238 60.3112,17.5713 61.5,18.5C 61.0623,19.5063 60.3957,19.5063 59.5,18.5C 59.0024,19.6034 58.6691,20.6034 58.5,21.5C 57.5713,20.3112 57.238,18.9778 57.5,17.5 Z"/></g>
<g><path style="opacity:1" fill="#6a5540" d="M 15.5,20.5 C 16.4584,20.9528 17.2917,21.6195 18,22.5C 21.3124,21.5455 21.3124,21.8788 18,23.5C 16.2509,23.2517 15.4176,22.2517 15.5,20.5 Z"/></g>
<g><path style="opacity:1" fill="#77614d" d="M 63.5,21.5 C 64.3764,21.3691 65.0431,21.7025 65.5,22.5C 64.0663,23.2298 62.8996,24.2298 62,25.5C 61.5,25 61,24.5 60.5,24C 61.5707,23.1482 62.5707,22.3149 63.5,21.5 Z"/></g>
<g><path style="opacity:1" fill="#705b45" d="M 13.5,25.5 C 15.817,24.4655 16.817,25.4655 16.5,28.5C 15.448,28.6495 14.448,28.4828 13.5,28C 13.3757,27.0301 13.3757,26.1968 13.5,25.5 Z"/></g>
<g><path style="opacity:1" fill="#69543f" d="M 64.5,25.5 C 66.9118,25.6941 67.9118,27.0274 67.5,29.5C 64.0464,29.7332 63.0464,28.3999 64.5,25.5 Z"/></g>
<g><path style="opacity:1" fill="#756861" d="M 70.5,26.5 C 72.0652,28.5093 73.0652,30.8427 73.5,33.5C 73.1667,33.5 72.8333,33.5 72.5,33.5C 71.3882,31.4006 70.7215,29.0673 70.5,26.5 Z"/></g>
<g><path style="opacity:1" fill="#65513a" d="M 10.5,30.5 C 11.8734,30.3433 13.2068,30.51 14.5,31C 13.8333,31.3333 13.1667,31.6667 12.5,32C 12.8333,33 13.1667,34 13.5,35C 9.89139,35.2259 8.89139,33.7259 10.5,30.5 Z"/></g>
<g><path style="opacity:1" fill="#67523c" d="M 67.5,31.5 C 68.3764,31.3691 69.0431,31.7025 69.5,32.5C 68.332,35.4689 66.9987,35.8022 65.5,33.5C 65.8457,32.3044 66.3457,32.3044 67,33.5C 67.4643,32.9056 67.631,32.2389 67.5,31.5 Z"/></g>
<g><path style="opacity:1" fill="#e0c7b9" d="M 46.5,33.5 C 47.4959,33.4142 48.3292,33.7476 49,34.5C 49.7796,36.3869 49.6129,38.0536 48.5,39.5C 48.3964,37.2972 47.7298,35.2972 46.5,33.5 Z"/></g>
<g><path style="opacity:1" fill="#87715d" d="M 46.5,33.5 C 47.7298,35.2972 48.3964,37.2972 48.5,39.5C 47.8386,40.7175 47.1719,42.0508 46.5,43.5C 45.1944,40.0202 45.1944,36.6868 46.5,33.5 Z"/></g>
<g><path style="opacity:1" fill="#856f5b" d="M 53.5,35.5 C 54.1894,34.2264 55.0228,34.2264 56,35.5C 56.8184,38.2272 56.6517,40.8938 55.5,43.5C 54.7189,42.2713 54.2189,40.938 54,39.5C 53.7811,40.938 53.2811,42.2713 52.5,43.5C 51.4879,41.1631 51.6546,38.8297 53,36.5C 53.3333,37.1667 53.6667,37.8333 54,38.5C 54.7401,37.2506 54.5735,36.2506 53.5,35.5 Z"/></g>
<g><path style="opacity:1" fill="#6d5842" d="M 23.5,34.5 C 24.2389,34.369 24.9056,34.5357 25.5,35C 24.7256,37.405 24.2256,39.905 24,42.5C 22.1865,39.9218 22.0198,37.2551 23.5,34.5 Z"/></g>
<g><path style="opacity:1" fill="#836d59" d="M 46.5,33.5 C 47.5417,32.2089 48.7083,32.2089 50,33.5C 50.6667,36.8333 50.6667,40.1667 50,43.5C 48.8118,42.4366 48.3118,41.1033 48.5,39.5C 49.6129,38.0536 49.7796,36.3869 49,34.5C 48.3292,33.7476 47.4959,33.4142 46.5,33.5 Z"/></g>
<g><path style="opacity:1" fill="#856f5b" d="M 30.5,34.5 C 31.4959,34.4142 32.3292,34.7476 33,35.5C 33.8184,38.2272 33.6517,40.8938 32.5,43.5C 30.2224,40.691 29.5557,37.691 30.5,34.5 Z"/></g>
<g><path style="opacity:1" fill="#937c69" d="M 40.5,27.5 C 40.56,26.9569 40.8933,26.6236 41.5,26.5C 44.0216,31.9597 44.6882,37.6264 43.5,43.5C 42.7189,42.2713 42.2189,40.938 42,39.5C 41.7811,40.938 41.2811,42.2713 40.5,43.5C 40.1667,42.6667 39.8333,41.8333 39.5,41C 41.3909,36.443 41.7242,31.943 40.5,27.5 Z"/></g>
<g><path style="opacity:1" fill="#89735f" d="M 36.5,26.5 C 37.1635,28.0419 37.8302,29.7086 38.5,31.5C 39.2508,30.624 39.7508,29.624 40,28.5C 40.4935,30.1341 40.6602,31.8008 40.5,33.5C 39.5,33.5 38.5,33.5 37.5,33.5C 38.1346,36.4929 38.3013,39.4929 38,42.5C 36.9887,43.3366 35.8221,43.67 34.5,43.5C 34.7786,37.7776 35.4453,32.1109 36.5,26.5 Z"/></g>
<g><path style="opacity:1" fill="#776a63" d="M 65.5,43.5 C 66.647,46.289 66.147,48.9556 64,51.5C 64.3594,48.8877 64.8594,46.221 65.5,43.5 Z"/></g>
<g><path style="opacity:1" fill="#ce6f5e" d="M 35.5,46.5 C 37.7216,47.3862 39.8882,47.3862 42,46.5C 44.9326,47.7709 47.5993,49.4376 50,51.5C 51.1516,49.4883 52.3183,49.3217 53.5,51C 51.8302,52.9754 49.6636,53.8088 47,53.5C 44.2447,53.5902 41.7447,52.9236 39.5,51.5C 35.6704,53.312 31.6704,53.812 27.5,53C 26.4829,51.9505 26.3162,50.7839 27,49.5C 27.7253,51.158 28.892,51.658 30.5,51C 32.0699,49.3217 33.7365,47.8217 35.5,46.5 Z"/></g>
<g><path style="opacity:1" fill="#2d2826" d="M 8.5,26.5 C 7.67609,30.7993 7.00942,35.1327 6.5,39.5C 7.02771,44.6082 8.02771,49.6082 9.5,54.5C 6.39384,49.913 5.06051,44.7464 5.5,39C 5.06677,34.3591 6.06677,30.1924 8.5,26.5 Z"/></g>
<g><path style="opacity:1" fill="#736760" d="M 12.5,43.5 C 14.035,45.9388 14.8683,48.6055 15,51.5C 13.2687,49.1382 12.4354,46.4715 12.5,43.5 Z"/></g>
<g><path style="opacity:1" fill="#b79f8e" d="M 20.5,59.5 C 19.1529,58.8288 17.9862,58.8288 17,59.5C 16.3828,58.5509 16.5494,57.7175 17.5,57C 16.5,56.6667 15.5,56.3333 14.5,56C 16.3464,51.4215 18.6797,51.5882 21.5,56.5C 20.8728,57.4168 20.5394,58.4168 20.5,59.5 Z"/></g>
<g><path style="opacity:1" fill="#c7afa0" d="M 65.5,58.5 C 61.9278,64.1396 56.9278,68.1396 50.5,70.5C 49.9217,68.5565 48.9217,68.2232 47.5,69.5C 46.0576,67.684 45.5576,65.684 46,63.5C 46.4362,66.2836 47.9362,67.4502 50.5,67C 48.9861,65.561 48.6527,64.061 49.5,62.5C 50.3857,63.325 50.719,64.325 50.5,65.5C 51.675,65.719 52.675,65.3857 53.5,64.5C 51.8795,62.2606 52.2129,60.4272 54.5,59C 56.6889,58.678 58.6889,59.178 60.5,60.5C 61.2389,60.631 61.9056,60.4643 62.5,60C 61.4019,59.2303 61.4019,58.397 62.5,57.5C 62.9382,57.5654 63.2716,57.3988 63.5,57C 62.3128,55.9805 61.3128,54.8139 60.5,53.5C 62.5969,52.2521 64.2635,52.7521 65.5,55C 64.3421,56.2607 64.3421,57.4274 65.5,58.5 Z"/></g>
<g><path style="opacity:1" fill="#2f2a28" d="M 72.5,33.5 C 72.8333,33.5 73.1667,33.5 73.5,33.5C 73.0762,63.4262 58.0762,76.2596 28.5,72C 19.3892,69.0514 13.0559,63.2181 9.5,54.5C 19.3195,69.5729 32.9862,74.9062 50.5,70.5C 56.9278,68.1396 61.9278,64.1396 65.5,58.5C 71.0762,51.2099 73.4095,42.8765 72.5,33.5 Z"/></g>
<g><path style="opacity:1" fill="#a28b79" d="M 30.5,62.5 C 34.2578,64.1058 34.4244,66.1058 31,68.5C 30.5,68.1667 30,67.8333 29.5,67.5C 30.3094,65.9291 30.6427,64.2624 30.5,62.5 Z"/></g>
<g><path style="opacity:1" fill="#98826f" d="M 20.5,59.5 C 25.4772,58.7851 25.6438,60.1185 21,63.5C 19.4894,62.436 19.3228,61.1026 20.5,59.5 Z"/></g>
<g><path style="opacity:1" fill="#947e6b" d="M 62.5,57.5 C 61.4019,58.397 61.4019,59.2303 62.5,60C 61.9056,60.4643 61.2389,60.631 60.5,60.5C 59.7101,59.2058 58.7101,58.0391 57.5,57C 59.2729,55.198 60.9395,55.3647 62.5,57.5 Z"/></g>
</svg>
