<?xml version="1.0" encoding="UTF-8"?>
<!DOCTYPE svg PUBLIC "-//W3C//DTD SVG 1.1//EN" "http://www.w3.org/Graphics/SVG/1.1/DTD/svg11.dtd">
<svg xmlns="http://www.w3.org/2000/svg" version="1.1" width="100px" height="100px" style="shape-rendering:geometricPrecision; text-rendering:geometricPrecision; image-rendering:optimizeQuality; fill-rule:evenodd; clip-rule:evenodd" xmlns:xlink="http://www.w3.org/1999/xlink">
<g><path style="opacity:1" fill="#e6cdbf" d="M -0.5,-0.5 C 32.8333,-0.5 66.1667,-0.5 99.5,-0.5C 99.5,32.8333 99.5,66.1667 99.5,99.5C 66.1667,99.5 32.8333,99.5 -0.5,99.5C -0.5,66.1667 -0.5,32.8333 -0.5,-0.5 Z"/></g>
<g><path style="opacity:1" fill="#e3cabc" d="M 87.5,33.5 C 89.314,37.2793 90.314,41.2793 90.5,45.5C 90.9931,67.3756 80.9931,81.8756 60.5,89C 35.5548,93.6161 18.7214,84.1161 10,60.5C 5.51178,37.6436 13.6784,21.1436 34.5,11C 58.3186,4.42893 75.9853,11.9289 87.5,33.5 Z"/></g>
<g><path style="opacity:1" fill="#24211f" d="M 88.5,33.5 C 88.1667,33.5 87.8333,33.5 87.5,33.5C 75.9853,11.9289 58.3186,4.42893 34.5,11C 13.6784,21.1436 5.51178,37.6436 10,60.5C 18.7214,84.1161 35.5548,93.6161 60.5,89C 80.9931,81.8756 90.9931,67.3756 90.5,45.5C 91.4767,48.2869 91.81,51.2869 91.5,54.5C 87.3845,77.9435 73.3845,90.6101 49.5,92.5C 20.1312,88.7654 5.96457,72.0988 7,42.5C 13.7918,17.8545 29.9584,6.02114 55.5,7C 66.3766,9.18689 75.5432,14.3536 83,22.5C 85.3716,25.9099 87.2049,29.5766 88.5,33.5 Z"/></g>
<g><path style="opacity:1" fill="#69543e" d="M 51.5,12.5 C 53.1667,12.5 54.8333,12.5 56.5,12.5C 56.1656,14.5447 55.8323,16.2114 55.5,17.5C 54.5,16.1667 53.5,16.1667 52.5,17.5C 51.5481,15.9547 51.2148,14.288 51.5,12.5 Z"/></g>
<g><path style="opacity:1" fill="#715c46" d="M 44.5,11.5 C 48.9707,11.6724 49.3041,12.5057 45.5,14C 50.8665,16.4739 50.5331,17.4739 44.5,17C 43.2475,15.1722 43.2475,13.3388 44.5,11.5 Z"/></g>
<g><path style="opacity:1" fill="#6e5944" d="M 38.5,13.5 C 40.3786,13.3932 40.7119,13.8932 39.5,15C 42.3185,17.8692 41.6518,19.3692 37.5,19.5C 37.3253,17.3792 37.6586,15.3792 38.5,13.5 Z"/></g>
<g><path style="opacity:1" fill="#66513b" d="M 31.5,15.5 C 33.0876,16.6413 34.4209,18.1413 35.5,20C 34.9747,20.6924 34.3081,21.1924 33.5,21.5C 32.5233,19.5891 31.8567,17.5891 31.5,15.5 Z"/></g>
<g><path style="opacity:1" fill="#6a553f" d="M 60.5,13.5 C 62.045,14.2297 62.8784,15.563 63,17.5C 63.8333,16.5 64.6667,15.5 65.5,14.5C 66.1721,16.8599 65.3388,18.8599 63,20.5C 60.8634,18.6789 60.0301,16.3456 60.5,13.5 Z"/></g>
<g><path style="opacity:1" fill="#67523c" d="M 68.5,17.5 C 69.675,17.281 70.675,17.6143 71.5,18.5C 69.8333,19.5 68.5,20.8333 67.5,22.5C 67.1667,22.1667 66.8333,21.8333 66.5,21.5C 67.6302,20.3777 68.2969,19.0443 68.5,17.5 Z"/></g>
<g><path style="opacity:1" fill="#65503a" d="M 27.5,18.5 C 32.0687,24.4314 31.0687,25.598 24.5,22C 25.7101,20.9609 26.7101,19.7942 27.5,18.5 Z"/></g>
<g><path style="opacity:1" fill="#75604b" d="M 72.5,21.5 C 74.6648,21.1159 76.3315,21.7826 77.5,23.5C 76.1667,23.8333 74.8333,24.1667 73.5,24.5C 73.9767,25.4776 74.6433,26.3109 75.5,27C 71.803,26.776 70.803,24.9427 72.5,21.5 Z"/></g>
<g><path style="opacity:1" fill="#715c47" d="M 19.5,25.5 C 20.7942,26.2899 21.9609,27.2899 23,28.5C 23.5354,26.7295 24.3687,26.3961 25.5,27.5C 22.2497,31.5568 20.2497,30.8902 19.5,25.5 Z"/></g>
<g><path style="opacity:1" fill="#6a553f" d="M 79.5,26.5 C 80.4778,26.811 81.1445,27.4777 81.5,28.5C 76.2382,32.2724 75.5715,31.6058 79.5,26.5 Z"/></g>
<g><path style="opacity:1" fill="#65503a" d="M 16.5,29.5 C 20.5143,31.1797 21.181,33.513 18.5,36.5C 14.5644,34.0172 14.5644,32.8506 18.5,33C 17.1772,32.1841 16.5106,31.0174 16.5,29.5 Z"/></g>
<g><path style="opacity:1" fill="#8a7460" d="M 45.5,32.5 C 47.1954,34.7324 48.3621,37.3991 49,40.5C 49.2895,38.0481 49.9562,35.7148 51,33.5C 51.6667,32.1667 52.3333,32.1667 53,33.5C 53.6667,36.1667 53.6667,38.8333 53,41.5C 51.8658,36.203 51.0325,36.203 50.5,41.5C 48.8333,41.5 47.1667,41.5 45.5,41.5C 45.5,38.5 45.5,35.5 45.5,32.5 Z"/></g>
<g><path style="opacity:1" fill="#6b5641" d="M 79.5,32.5 C 83.0289,31.8894 84.8622,33.2227 85,36.5C 80.848,38.4919 79.0146,37.1585 79.5,32.5 Z"/></g>
<g><path style="opacity:1" fill="#49413d" d="M 87.5,33.5 C 87.8333,33.5 88.1667,33.5 88.5,33.5C 90.7183,36.7193 91.885,40.386 92,44.5C 92.8075,48.0267 92.6408,51.3601 91.5,54.5C 91.81,51.2869 91.4767,48.2869 90.5,45.5C 90.314,41.2793 89.314,37.2793 87.5,33.5 Z"/></g>
<g><path style="opacity:1" fill="#67523c" d="M 12.5,37.5 C 14.7505,37.1814 16.7505,37.6814 18.5,39C 16.2853,39.3876 14.952,40.3876 14.5,42C 15.1667,42.6667 15.8333,43.3333 16.5,44C 14.8374,44.2649 13.3374,43.7649 12,42.5C 11.5439,41.2559 12.0439,40.4226 13.5,40C 12.7476,39.3292 12.4142,38.4959 12.5,37.5 Z"/></g>
<g><path style="opacity:1" fill="#634f39" d="M 82.5,39.5 C 83.2216,39.9175 83.7216,40.5842 84,41.5C 84.4226,40.0439 85.2559,39.5439 86.5,40C 87.5171,41.0495 87.6838,42.2161 87,43.5C 85.8525,42.5419 84.8525,42.8753 84,44.5C 82.7308,43.0953 82.2308,41.4286 82.5,39.5 Z"/></g>
<g><path style="opacity:1" fill="#59452e" d="M 59.5,45.5 C 58.2329,48.272 58.2329,50.9387 59.5,53.5C 59.44,54.0431 59.1067,54.3764 58.5,54.5C 57.803,50.6229 57.1363,46.7896 56.5,43C 58.4894,42.4808 59.4894,43.3141 59.5,45.5 Z"/></g>
<g><path style="opacity:1" fill="#9c8573" d="M 59.5,53.5 C 58.2329,50.9387 58.2329,48.272 59.5,45.5C 60.2216,45.9175 60.7216,46.5842 61,47.5C 61.9132,44.648 61.0799,42.4814 58.5,41C 59.635,40.2506 60.635,40.4173 61.5,41.5C 63.6829,45.6277 64.0162,49.961 62.5,54.5C 61.5726,52.8872 60.7393,51.2205 60,49.5C 59.51,50.7932 59.3433,52.1266 59.5,53.5 Z"/></g>
<g><path style="opacity:1" fill="#846e5a" d="M 42.5,43.5 C 43.8845,42.1991 45.3845,42.1991 47,43.5C 48.2551,47.0408 48.4218,50.5408 47.5,54C 46.2068,54.49 44.8734,54.6567 43.5,54.5C 43.815,50.6286 43.4816,46.9619 42.5,43.5 Z"/></g>
<g><path style="opacity:1" fill="#6f5944" d="M 67.5,42.5 C 68.7498,42.5774 69.5831,43.244 70,44.5C 69.9967,57.8334 69.33,57.8334 68,44.5C 67.4444,46.5951 66.9444,46.7618 66.5,45C 66.7432,44.0979 67.0766,43.2646 67.5,42.5 Z"/></g>
<g><path style="opacity:1" fill="#735e49" d="M 65.5,47.5 C 66.7969,49.6934 66.7969,52.0268 65.5,54.5C 65.2947,52.4476 65.2947,50.1143 65.5,47.5 Z"/></g>
<g><path style="opacity:1" fill="#8d7763" d="M 50.5,46.5 C 51.8003,49.0241 51.8003,51.6908 50.5,54.5C 50.0509,51.9564 50.0509,49.2898 50.5,46.5 Z"/></g>
<g><path style="opacity:1" fill="#6c5741" d="M 52.5,42.5 C 53.4584,42.9528 54.2917,43.6195 55,44.5C 54.9967,57.8334 54.33,57.8334 53,44.5C 52.3457,45.6956 51.8457,45.6956 51.5,44.5C 51.8627,43.8165 52.1961,43.1499 52.5,42.5 Z"/></g>
<g><path style="opacity:1" fill="#7a644f" d="M 30.5,42.5 C 31.9778,42.238 33.3112,42.5713 34.5,43.5C 33.0475,43.0598 31.8808,43.7265 31,45.5C 30.1048,48.4663 30.6048,51.1329 32.5,53.5C 33.7202,52.2889 34.8869,52.2889 36,53.5C 35.9365,49.3941 37.1031,45.7274 39.5,42.5C 39.8333,42.8333 40.1667,43.1667 40.5,43.5C 41.7641,47.1534 41.7641,50.82 40.5,54.5C 38.9071,47.9514 37.9071,47.9514 37.5,54.5C 30.2208,56.0512 27.3874,53.0512 29,45.5C 29.5133,44.4734 30.0133,43.4734 30.5,42.5 Z"/></g>
<g><path style="opacity:1" fill="#6a5e58" d="M 15.5,54.5 C 16.1174,54.6107 16.6174,54.944 17,55.5C 17.9145,58.5449 18.5811,61.5449 19,64.5C 17.1425,61.4284 15.9758,58.095 15.5,54.5 Z"/></g>
<g><path style="opacity:1" fill="#625751" d="M 81.5,60.5 C 81.372,58.3453 81.872,56.3453 83,54.5C 83.405,56.7749 82.905,58.7749 81.5,60.5 Z"/></g>
<g><path style="opacity:1" fill="#cd6e5d" d="M 43.5,58.5 C 47.2082,59.3872 50.8749,59.5539 54.5,59C 56.792,60.2899 58.792,61.9565 60.5,64C 61.7932,64.49 63.1266,64.6567 64.5,64.5C 64.3505,63.448 64.5172,62.448 65,61.5C 66.3654,62.5929 66.6987,63.9262 66,65.5C 60.0685,68.4878 54.5685,67.8211 49.5,63.5C 45.4544,67.0906 40.7877,68.2573 35.5,67C 32.3302,65.8299 31.8302,63.9965 34,61.5C 34.4828,62.448 34.6495,63.448 34.5,64.5C 38.5302,64.1507 41.5302,62.1507 43.5,58.5 Z"/></g>
<g><path style="opacity:1" fill="#5a504a" d="M 81.5,60.5 C 81.6882,62.1033 81.1882,63.4366 80,64.5C 79.6522,62.8602 80.1522,61.5268 81.5,60.5 Z"/></g>
<g><path style="opacity:1" fill="#9e8775" d="M 19.5,66.5 C 21.0562,67.2909 22.3895,67.6242 23.5,67.5C 22.1349,68.941 20.6349,70.2744 19,71.5C 18.3828,70.5509 18.5494,69.7175 19.5,69C 18.2624,69.0773 17.2624,68.9106 16.5,68.5C 17.6016,67.8243 18.6016,67.1577 19.5,66.5 Z"/></g>
<g><path style="opacity:1" fill="#a18a77" d="M 75.5,65.5 C 78.8048,65.5414 80.9715,66.8748 82,69.5C 80.1598,68.1669 79.6598,68.3335 80.5,70C 77.8142,69.8228 76.1476,68.3228 75.5,65.5 Z"/></g>
<g><path style="opacity:1" fill="#9f8875" d="M 24.5,69.5 C 26.8139,70.1787 27.1472,71.512 25.5,73.5C 23.3528,74.8353 21.3528,74.6686 19.5,73C 21.8808,72.7767 23.5475,71.61 24.5,69.5 Z"/></g>
<g><path style="opacity:1" fill="#917b68" d="M 72.5,69.5 C 74.9095,70.3835 77.2429,71.5502 79.5,73C 78.3333,73.5 77.5,74.3333 77,75.5C 74.6949,73.9781 73.1949,71.9781 72.5,69.5 Z"/></g>
<g><path style="opacity:1" fill="#99826f" d="M 69.5,72.5 C 71.5805,73.7273 73.5805,75.2273 75.5,77C 74.3333,77.5 73.5,78.3333 73,79.5C 71.6667,78.1667 70.3333,76.8333 69,75.5C 68.5304,74.4232 68.6971,73.4232 69.5,72.5 Z"/></g>
<g><path style="opacity:1" fill="#86705c" d="M 27.5,72.5 C 28.9953,72.4148 29.9953,73.0815 30.5,74.5C 29.071,76.8783 27.2376,78.2116 25,78.5C 25.4826,76.4634 26.3159,74.4634 27.5,72.5 Z"/></g>
<g><path style="opacity:1" fill="#8d7764" d="M 65.5,75.5 C 67.3786,75.3932 67.7119,75.8932 66.5,77C 67.614,78.5699 68.9474,79.9032 70.5,81C 70,81.5 69.5,82 69,82.5C 67.1207,80.4732 65.954,78.1398 65.5,75.5 Z"/></g>
<g><path style="opacity:1" fill="#9e8774" d="M 35.5,77.5 C 36.794,80.0191 36.294,82.3525 34,84.5C 33.5518,82.7756 32.7185,82.109 31.5,82.5C 32.6125,80.5808 33.9458,78.9142 35.5,77.5 Z"/></g>
<g><path style="opacity:1" fill="#846f5a" d="M 61.5,78.5 C 62.4159,81.4243 64.0826,83.0909 66.5,83.5C 62.7283,84.4006 61.0616,82.734 61.5,78.5 Z"/></g>
<g><path style="opacity:1" fill="#998270" d="M 38.5,78.5 C 39.766,79.0899 41.0993,79.5899 42.5,80C 41.7454,82.1748 40.912,84.3415 40,86.5C 39.6667,85.1667 39.3333,83.8333 39,82.5C 38.7508,83.624 38.2508,84.624 37.5,85.5C 37.1667,85.3333 36.8333,85.1667 36.5,85C 37.6687,82.9935 38.3354,80.8268 38.5,78.5 Z"/></g>
<g><path style="opacity:1" fill="#836d59" d="M 57.5,79.5 C 59.0881,81.5273 59.5881,83.8606 59,86.5C 57.7978,84.3225 57.2978,81.9892 57.5,79.5 Z"/></g>
<g><path style="opacity:1" fill="#a48e7b" d="M 52.5,80.5 C 53.5,80.5 54.5,80.5 55.5,80.5C 55.5191,82.0603 55.8524,83.5603 56.5,85C 56.3865,86.2798 55.7199,87.1131 54.5,87.5C 53.0562,85.3921 52.3896,83.0588 52.5,80.5 Z"/></g>
<g><path style="opacity:1" fill="#826d59" d="M 45.5,81.5 C 46.7928,83.3635 46.7928,85.3635 45.5,87.5C 46.017,85.9815 45.3504,84.6482 43.5,83.5C 43.8457,82.3044 44.3457,82.3044 45,83.5C 45.4643,82.9056 45.631,82.2389 45.5,81.5 Z"/></g>
</svg>
